<?xml version="1.0" encoding="UTF-8"?>
<!DOCTYPE svg PUBLIC "-//W3C//DTD SVG 1.1//EN" "http://www.w3.org/Graphics/SVG/1.1/DTD/svg11.dtd">
<svg version="1.1" xmlns="http://www.w3.org/2000/svg" xmlns:xlink="http://www.w3.org/1999/xlink" x="0" y="0" width="408" height="362" viewBox="0, 0, 408, 362">
  <defs>
    <clipPath id="Clip_1">
      <path d="M245.244,132.079 L245.244,186.259 L245.172,186.259 C244.92,188.527 243.939,190.696 242.364,192.703 L242.364,192.712 C241.131,194.296 239.529,195.763 237.612,197.122 C236.523,197.887 235.326,198.616 234.039,199.3 C232.356,200.2 230.511,201.019 228.522,201.748 C223.86,203.458 218.442,204.673 212.574,205.222 L212.556,205.222 C210.441,205.438 208.272,205.546 206.04,205.564 C205.779,205.573 205.509,205.573 205.239,205.573 C202.134,205.573 199.11,205.393 196.212,205.042 C193.737,204.754 191.361,204.349 189.093,203.836 L189.093,203.827 C186.798,203.314 184.629,202.693 182.604,201.964 C179.868,201.019 177.393,199.885 175.206,198.616 C169.482,195.286 165.837,190.975 165.306,186.259 L165.243,186.259 L165.243,132.079 L245.244,132.079 z"/>
    </clipPath>
    <clipPath id="Clip_2">
      <path d="M140.241,132.079 L140.241,186.259 L140.169,186.259 C139.917,188.527 138.936,190.696 137.361,192.703 L137.361,192.712 C136.128,194.296 134.526,195.763 132.609,197.122 C131.52,197.887 130.332,198.616 129.036,199.3 C127.362,200.2 125.508,201.019 123.519,201.748 C118.857,203.458 113.439,204.673 107.571,205.222 L107.562,205.222 C105.438,205.438 103.269,205.546 101.037,205.564 C100.776,205.573 100.506,205.573 100.236,205.573 C97.131,205.573 94.107,205.393 91.209,205.042 C88.743,204.754 86.358,204.349 84.09,203.836 L84.09,203.827 C81.804,203.314 79.626,202.693 77.601,201.964 C74.874,201.019 72.39,199.885 70.212,198.616 C64.479,195.286 60.843,190.975 60.312,186.259 L60.24,186.259 L60.24,132.079 L140.241,132.079 z"/>
    </clipPath>
    <clipPath id="Clip_3">
      <path d="M350.238,132.079 L350.238,186.259 L350.166,186.259 C349.923,188.527 348.942,190.696 347.358,192.703 L347.358,192.712 C346.134,194.296 344.532,195.763 342.606,197.122 C341.517,197.887 340.329,198.616 339.042,199.3 C337.359,200.2 335.514,201.019 333.516,201.748 C328.863,203.458 323.436,204.673 317.568,205.222 L317.559,205.222 C315.435,205.438 313.266,205.546 311.043,205.564 C310.782,205.573 310.512,205.573 310.242,205.573 C307.128,205.573 304.113,205.393 301.206,205.042 C298.74,204.754 296.364,204.349 294.087,203.836 L294.087,203.827 C291.801,203.314 289.632,202.693 287.598,201.964 C284.871,201.019 282.387,199.885 280.209,198.616 C274.476,195.286 270.84,190.975 270.309,186.259 L270.237,186.259 L270.237,132.079 L350.238,132.079 z"/>
    </clipPath>
  </defs>
  <g id="Layer_1">
    <path d="M405.237,192.874 C405.237,218.434 314.922,239.161 203.502,239.161 C92.082,239.161 1.758,218.434 1.758,192.874 C1.758,167.305 92.082,146.578 203.502,146.578 C314.922,146.578 405.237,167.305 405.237,192.874" fill="#1A1919"/>
    <path d="M405.237,187.366 C405.237,212.935 314.922,233.662 203.502,233.662 C92.082,233.662 1.758,212.935 1.758,187.366 C1.758,161.806 92.082,141.079 203.502,141.079 C314.922,141.079 405.237,161.806 405.237,187.366" fill="#242A27"/>
    <path d="M258.528,195.394 C258.528,204.331 234.669,211.576 205.239,211.576 C175.809,211.576 151.95,204.331 151.95,195.394 C151.95,186.457 175.809,179.212 205.239,179.212 C234.669,179.212 258.528,186.457 258.528,195.394" fill="#1A1919"/>
    <g clip-path="url(#Clip_1)">
      <path d="M245.244,132.079 L245.244,186.259 L245.172,186.259 C244.92,188.527 243.939,190.696 242.364,192.703 L242.364,192.712 C241.131,194.296 239.529,195.763 237.612,197.122 C236.523,197.887 235.326,198.616 234.039,199.3 C232.356,200.2 230.511,201.019 228.522,201.748 C223.86,203.458 218.442,204.673 212.574,205.222 L212.556,205.222 C210.441,205.438 208.272,205.546 206.04,205.564 C205.779,205.573 205.509,205.573 205.239,205.573 C202.134,205.573 199.11,205.393 196.212,205.042 C193.737,204.754 191.361,204.349 189.093,203.836 L189.093,203.827 C186.798,203.314 184.629,202.693 182.604,201.964 C179.868,201.019 177.393,199.885 175.206,198.616 C169.482,195.286 165.837,190.975 165.306,186.259 L165.243,186.259 L165.243,132.079 L245.244,132.079" fill="#C96C43"/>
      <path d="M182.604,201.964 C179.868,201.019 177.393,199.885 175.206,198.616 C172.299,189.499 170.193,180.112 169.086,170.509 C167.637,157.747 168.159,144.652 170.859,132.079 L177.024,132.079 C174.171,144.589 173.604,157.675 175.089,170.509 C176.349,181.309 178.968,191.803 182.604,201.964" fill="#D08C71"/>
      <path d="M199.389,134.716 C186.636,156.019 185.538,182.812 196.212,205.042 C193.737,204.754 191.361,204.349 189.093,203.836 L189.093,203.827 C179.517,180.778 181.164,153.778 193.98,132.079 C194.061,131.944 194.133,131.818 194.214,131.683 C195.627,129.325 198.669,130.189 199.569,132.079 C199.938,132.835 199.956,133.762 199.389,134.716" fill="#D08C71"/>
      <path d="M245.244,135.157 C236.631,153.112 235.659,174.064 242.364,192.703 L242.364,192.712 C241.131,194.296 239.529,195.763 237.612,197.122 C229.359,176.26 230.178,152.329 240.06,132.079 L245.244,132.079 L245.244,135.157" fill="#D08C71"/>
      <path d="M217.398,140.584 C203.916,159.439 202.161,184.756 212.556,205.222 C210.441,205.438 208.272,205.546 206.04,205.564 C196.041,183.829 198.156,157.225 212.223,137.56 C214.446,134.437 219.648,137.434 217.398,140.584" fill="#D08C71"/>
      <path d="M234.039,199.3 C232.356,200.2 230.511,201.019 228.522,201.748 C224.184,194.197 220.206,186.349 218.316,177.826 C215.796,166.468 217.731,155.047 220.152,143.86 C220.971,140.08 226.749,141.682 225.939,145.453 C223.617,156.163 221.718,167.098 224.508,177.925 C226.479,185.539 230.106,192.514 234.039,199.3" fill="#D08C71"/>
      <path d="M205.239,205.573 C205.071,205.573 204.902,205.572 204.734,205.571 C204.677,205.571 204.619,205.57 204.562,205.57 C204.439,205.569 204.317,205.567 204.194,205.566 C204.14,205.565 204.084,205.564 204.029,205.564 C203.871,205.561 203.713,205.558 203.555,205.555 C203.49,205.554 203.425,205.552 203.36,205.55 C203.263,205.548 203.165,205.546 203.068,205.543 C202.989,205.541 202.911,205.539 202.832,205.536 C202.711,205.533 202.59,205.529 202.47,205.524 C202.387,205.521 202.305,205.518 202.223,205.515 C202.106,205.511 201.989,205.506 201.872,205.501 C201.81,205.498 201.746,205.496 201.684,205.493 C201.554,205.487 201.425,205.481 201.296,205.474 C201.261,205.473 201.226,205.471 201.191,205.469 C201.016,205.46 200.841,205.45 200.666,205.44 C200.652,205.439 200.636,205.438 200.621,205.437 C199.124,205.349 197.652,205.216 196.212,205.042 C194.794,202.09 193.585,199.057 192.582,195.967 C195.938,195.942 199.192,195.705 202.299,195.28 C203.262,198.793 204.509,202.237 206.04,205.564 C205.914,205.568 205.787,205.57 205.658,205.572 C205.518,205.572 205.38,205.573 205.239,205.573" fill="#BB5639"/>
      <path d="M189.093,203.827 C188.108,203.607 187.147,203.367 186.21,203.107 C186.115,203.08 186.019,203.053 185.924,203.026 C185.903,203.021 185.882,203.015 185.862,203.009 C185.773,202.984 185.684,202.958 185.595,202.932 C185.555,202.921 185.515,202.909 185.474,202.897 C185.408,202.878 185.34,202.858 185.274,202.838 C184.359,202.566 183.468,202.275 182.604,201.964 C181.789,199.687 181.025,197.392 180.317,195.081 C182.234,195.381 184.214,195.609 186.243,195.759 C187.046,198.491 187.995,201.185 189.093,203.827 M175.202,198.605 C171.736,196.584 169.033,194.212 167.322,191.605 C169.315,192.405 171.458,193.11 173.728,193.709 C174.193,195.349 174.685,196.981 175.202,198.605" fill="#BB5639"/>
      <path d="M182.604,201.964 C181.959,201.741 181.329,201.508 180.714,201.265 C178.717,200.468 176.871,199.577 175.202,198.605 C174.685,196.981 174.193,195.349 173.728,193.709 C175.823,194.262 178.026,194.723 180.317,195.081 C181.025,197.392 181.789,199.687 182.604,201.964" fill="#BF6C52"/>
      <path d="M196.212,205.042 C194.978,204.898 193.769,204.726 192.586,204.525 C191.396,204.322 190.23,204.09 189.093,203.833 L189.093,203.827 C187.995,201.185 187.046,198.491 186.243,195.759 C188.116,195.898 190.032,195.97 191.982,195.97 C192.182,195.97 192.382,195.969 192.582,195.967 C193.585,199.057 194.794,202.09 196.212,205.042" fill="#BF6C52"/>
      <path d="M212.574,205.222 L212.556,205.222 C210.755,201.676 209.318,197.982 208.244,194.203 C213.536,192.993 218.222,191.211 222.002,189.01 C223.877,193.385 226.144,197.609 228.519,201.743 C225.996,202.671 223.254,203.451 220.34,204.061 C220.3,204.069 220.26,204.078 220.22,204.086 C220.116,204.108 220.013,204.129 219.908,204.15 C219.779,204.176 219.649,204.202 219.52,204.227 C219.506,204.23 219.492,204.233 219.479,204.235 C217.265,204.666 214.956,204.999 212.574,205.222" fill="#BB5639"/>
      <path d="M206.04,205.564 C204.509,202.237 203.262,198.793 202.299,195.28 C204.35,195 206.337,194.639 208.244,194.203 C209.318,197.982 210.755,201.676 212.556,205.222 C211.908,205.288 211.255,205.344 210.597,205.39 C209.871,205.44 209.137,205.48 208.399,205.51 C207.62,205.54 206.834,205.558 206.04,205.564" fill="#BF6C52"/>
      <path d="M234.037,199.297 C231.422,194.785 228.942,190.189 226.995,185.376 C229.816,182.763 231.556,179.801 231.906,176.647 L231.978,176.647 L231.978,132.079 L240.06,132.079 C230.179,152.327 229.359,176.254 237.609,197.114 C236.517,197.884 235.323,198.613 234.037,199.297 M242.364,192.703 C235.659,174.064 236.631,153.112 245.244,135.157 L245.244,186.259 L245.172,186.259 C245.163,186.34 245.153,186.421 245.142,186.502 C245.14,186.513 245.139,186.524 245.137,186.535 C245.127,186.606 245.117,186.677 245.106,186.748 C245.104,186.759 245.102,186.771 245.1,186.782 C245.088,186.855 245.076,186.925 245.063,186.998 C245.062,187.006 245.06,187.015 245.058,187.023 C245.044,187.099 245.029,187.177 245.014,187.253 C245.013,187.257 245.012,187.261 245.011,187.265 C244.977,187.428 244.939,187.591 244.898,187.754 C244.896,187.761 244.894,187.769 244.892,187.777 C244.874,187.844 244.856,187.911 244.838,187.978 C244.829,188.009 244.82,188.039 244.811,188.07 C244.8,188.109 244.789,188.147 244.777,188.186 C244.764,188.233 244.75,188.279 244.735,188.325 C244.728,188.347 244.722,188.367 244.715,188.389 C244.236,189.889 243.439,191.334 242.364,192.703" fill="#BB5639"/>
      <path d="M237.609,197.114 C229.359,176.254 230.179,152.327 240.06,132.079 L245.244,132.079 L245.244,135.157 C236.631,153.112 235.659,174.064 242.364,192.703 L242.364,192.712 C242.304,192.789 242.242,192.866 242.18,192.943 C240.972,194.43 239.432,195.829 237.609,197.114" fill="#BF6C52"/>
      <path d="M228.519,201.743 C226.144,197.609 223.877,193.385 222.002,189.01 C223.91,187.899 225.587,186.681 226.995,185.376 C228.942,190.189 231.422,194.785 234.037,199.297 C232.349,200.195 230.501,201.015 228.519,201.743" fill="#BF6C52"/>
    </g>
    <path d="M245.24,132.076 C245.24,143.398 227.331,152.576 205.24,152.576 C183.148,152.576 165.24,143.398 165.24,132.076 C165.24,120.754 183.148,111.576 205.24,111.576 C227.331,111.576 245.24,120.754 245.24,132.076" fill="#DE6135"/>
    <path d="M205.24,149.576 C183.107,149.576 168.24,140.528 168.24,132.076 C168.24,123.625 183.107,114.576 205.24,114.576 C227.372,114.576 242.24,123.625 242.24,132.076 C242.24,140.528 227.372,149.576 205.24,149.576" fill="#FFFFFE"/>
    <path d="M231.979,132.076 C231.979,134.236 227.55,139.566 215.91,141.686 C212.86,142.246 209.32,142.576 205.24,142.576 C185.55,142.576 178.5,134.796 178.5,132.076 C178.5,129.356 185.55,121.576 205.24,121.576 C209.32,121.576 212.86,121.906 215.91,122.466 C227.55,124.586 231.979,129.916 231.979,132.076" fill="#FFFFFE"/>
    <path d="M227.479,132.076 C227.479,134.236 223.05,139.566 211.41,141.686 C199.77,139.566 195.34,134.236 195.34,132.076 C195.34,129.916 199.77,124.586 211.41,122.466 C223.05,124.586 227.479,129.916 227.479,132.076" fill="#009858"/>
    <path d="M231.979,132.076 C231.979,134.236 227.55,139.566 215.91,141.686 C204.27,139.566 199.84,134.236 199.84,132.076 C199.84,129.916 204.27,124.586 215.91,122.466 C227.55,124.586 231.979,129.916 231.979,132.076" fill="#00A75D"/>
    <path d="M205.24,142.576 L205.24,141.576 C195.529,141.577 189.009,139.654 184.966,137.465 C182.944,136.372 181.54,135.209 180.667,134.205 C180.23,133.705 179.927,133.244 179.743,132.868 C179.557,132.492 179.5,132.199 179.503,132.076 C179.5,131.953 179.557,131.66 179.743,131.285 C180.064,130.623 180.754,129.715 181.877,128.763 C185.247,125.892 192.494,122.573 205.24,122.576 C214.951,122.576 221.47,124.498 225.514,126.687 C227.536,127.781 228.94,128.944 229.813,129.947 C230.25,130.447 230.553,130.908 230.737,131.285 C230.923,131.66 230.98,131.953 230.977,132.076 C230.98,132.199 230.923,132.492 230.737,132.868 C230.416,133.529 229.726,134.437 228.602,135.389 C225.233,138.26 217.986,141.579 205.24,141.576 L205.24,143.576 C215.214,143.576 222.063,141.606 226.466,139.224 C228.668,138.032 230.257,136.74 231.321,135.519 C231.853,134.908 232.255,134.315 232.533,133.746 C232.81,133.176 232.973,132.632 232.977,132.076 C232.973,131.521 232.81,130.976 232.533,130.406 C232.045,129.413 231.184,128.335 229.898,127.239 C226.039,123.965 218.33,120.579 205.24,120.576 C195.266,120.577 188.417,122.546 184.014,124.928 C181.812,126.12 180.223,127.413 179.159,128.633 C178.627,129.244 178.225,129.837 177.947,130.406 C177.67,130.976 177.507,131.521 177.503,132.076 C177.507,132.632 177.67,133.176 177.947,133.746 C178.435,134.74 179.296,135.818 180.582,136.913 C184.441,140.187 192.15,143.573 205.24,143.576 L205.24,142.576" fill="#1A1919"/>
    <path d="M153.525,195.394 C153.525,204.331 129.675,211.576 100.236,211.576 C70.806,211.576 46.947,204.331 46.947,195.394 C46.947,186.457 70.806,179.212 100.236,179.212 C129.675,179.212 153.525,186.457 153.525,195.394" fill="#1A1919"/>
    <path d="M363.531,195.394 C363.531,204.331 339.672,211.576 310.242,211.576 C280.812,211.576 256.953,204.331 256.953,195.394 C256.953,186.457 280.812,179.212 310.242,179.212 C339.672,179.212 363.531,186.457 363.531,195.394" fill="#1A1919"/>
    <g clip-path="url(#Clip_2)">
      <path d="M140.241,132.079 L140.241,186.259 L140.169,186.259 C139.917,188.527 138.936,190.696 137.361,192.703 L137.361,192.712 C136.128,194.296 134.526,195.763 132.609,197.122 C131.52,197.887 130.332,198.616 129.036,199.3 C127.362,200.2 125.508,201.019 123.519,201.748 C118.857,203.458 113.439,204.673 107.571,205.222 L107.562,205.222 C105.438,205.438 103.269,205.546 101.037,205.564 C100.776,205.573 100.506,205.573 100.236,205.573 C97.131,205.573 94.107,205.393 91.209,205.042 C88.743,204.754 86.358,204.349 84.09,203.836 L84.09,203.827 C81.804,203.314 79.626,202.693 77.601,201.964 C74.874,201.019 72.39,199.885 70.212,198.616 C64.479,195.286 60.843,190.975 60.312,186.259 L60.24,186.259 L60.24,132.079 L140.241,132.079" fill="#C96C43"/>
      <path d="M77.601,201.964 C74.874,201.019 72.39,199.885 70.212,198.616 C67.296,189.499 65.19,180.112 64.092,170.509 C62.643,157.747 63.156,144.652 65.856,132.079 L72.021,132.079 C69.168,144.589 68.601,157.675 70.086,170.509 C71.346,181.309 73.974,191.803 77.601,201.964" fill="#D08C71"/>
      <path d="M94.386,134.716 C81.642,156.019 80.544,182.812 91.209,205.042 C88.743,204.754 86.358,204.349 84.09,203.836 L84.09,203.827 C74.523,180.778 76.161,153.778 88.977,132.079 C89.058,131.944 89.13,131.818 89.211,131.683 C90.633,129.325 93.666,130.189 94.566,132.079 C94.944,132.835 94.962,133.762 94.386,134.716" fill="#D08C71"/>
      <path d="M140.241,135.157 C131.628,153.112 130.656,174.064 137.361,192.703 L137.361,192.712 C136.128,194.296 134.526,195.763 132.609,197.122 C124.356,176.26 125.184,152.329 135.057,132.079 L140.241,132.079 L140.241,135.157" fill="#D08C71"/>
      <path d="M112.404,140.584 C98.922,159.439 97.158,184.756 107.562,205.222 C105.438,205.438 103.269,205.546 101.037,205.564 C91.038,183.829 93.162,157.225 107.22,137.56 C109.452,134.437 114.654,137.434 112.404,140.584" fill="#D08C71"/>
      <path d="M129.036,199.3 C127.362,200.2 125.508,201.019 123.519,201.748 C119.181,194.197 115.212,186.349 113.322,177.826 C110.802,166.468 112.728,155.047 115.149,143.86 C115.968,140.08 121.746,141.682 120.936,145.453 C118.623,156.163 116.724,167.098 119.514,177.925 C121.476,185.539 125.112,192.514 129.036,199.3" fill="#D08C71"/>
      <path d="M100.236,205.573 C100.068,205.573 99.9,205.572 99.732,205.571 C99.675,205.571 99.615,205.57 99.558,205.57 C99.437,205.569 99.315,205.567 99.194,205.566 C99.138,205.565 99.081,205.564 99.025,205.564 C98.868,205.561 98.712,205.558 98.555,205.555 C98.485,205.554 98.417,205.552 98.347,205.55 C98.256,205.548 98.165,205.546 98.074,205.543 C97.989,205.541 97.907,205.539 97.822,205.536 C97.721,205.533 97.621,205.53 97.521,205.526 C97.407,205.522 97.295,205.518 97.181,205.514 C97.083,205.51 96.985,205.506 96.887,205.502 C96.812,205.499 96.736,205.495 96.661,205.492 C96.555,205.487 96.45,205.482 96.344,205.477 C96.288,205.474 96.23,205.471 96.173,205.468 C96.012,205.46 95.851,205.451 95.69,205.442 C95.653,205.439 95.617,205.437 95.58,205.435 C94.096,205.346 92.637,205.215 91.209,205.042 C89.793,202.09 88.584,199.057 87.582,195.967 C90.937,195.942 94.191,195.705 97.297,195.28 C98.26,198.795 99.506,202.236 101.037,205.564 C100.911,205.568 100.784,205.57 100.655,205.572 C100.515,205.572 100.377,205.573 100.236,205.573" fill="#BB5639"/>
      <path d="M84.09,203.827 C83.118,203.609 82.166,203.371 81.237,203.114 C80.892,203.018 80.553,202.921 80.214,202.82 C80.202,202.817 80.191,202.813 80.179,202.81 C80.087,202.782 79.994,202.754 79.903,202.727 C79.116,202.487 78.348,202.233 77.601,201.964 C76.788,199.686 76.026,197.392 75.317,195.081 C77.235,195.381 79.214,195.609 81.242,195.759 C82.044,198.491 82.993,201.185 84.09,203.827 M70.21,198.61 C67.247,196.884 64.84,194.901 63.134,192.735 C63.111,192.705 63.087,192.674 63.063,192.644 C63.042,192.616 63.02,192.589 62.999,192.561 C62.758,192.246 62.533,191.928 62.322,191.606 C64.316,192.405 66.461,193.111 68.73,193.709 C69.197,195.351 69.69,196.985 70.21,198.61" fill="#BB5639"/>
      <path d="M77.601,201.964 C76.95,201.738 76.313,201.502 75.691,201.255 C73.706,200.463 71.871,199.577 70.21,198.61 C69.69,196.985 69.197,195.351 68.73,193.709 C70.826,194.261 73.027,194.722 75.317,195.081 C76.026,197.392 76.788,199.686 77.601,201.964" fill="#BF6C52"/>
      <path d="M91.209,205.042 C89.983,204.899 88.778,204.727 87.596,204.527 C86.401,204.323 85.232,204.09 84.09,203.832 L84.09,203.827 C82.993,201.185 82.044,198.491 81.242,195.759 C83.115,195.898 85.031,195.97 86.979,195.97 C87.181,195.97 87.381,195.969 87.582,195.967 C88.584,199.057 89.793,202.09 91.209,205.042" fill="#BF6C52"/>
      <path d="M107.571,205.222 L107.562,205.222 C105.759,201.674 104.321,197.982 103.247,194.202 C108.539,192.992 113.223,191.21 117.003,189.009 C118.876,193.384 121.141,197.609 123.517,201.744 C121.123,202.624 118.532,203.371 115.784,203.966 C115.747,203.974 115.71,203.982 115.672,203.99 C115.579,204.01 115.484,204.03 115.39,204.05 C115.295,204.07 115.198,204.09 115.102,204.11 C115.05,204.121 114.999,204.131 114.947,204.142 C112.59,204.618 110.123,204.983 107.571,205.222" fill="#BB5639"/>
      <path d="M101.037,205.564 C99.506,202.236 98.26,198.795 97.297,195.28 C99.349,195 101.338,194.638 103.247,194.202 C104.321,197.982 105.759,201.674 107.562,205.222 C106.921,205.287 106.275,205.342 105.625,205.388 C104.886,205.439 104.143,205.48 103.392,205.51 C102.614,205.54 101.83,205.558 101.037,205.564" fill="#BF6C52"/>
      <path d="M129.035,199.299 C126.425,194.785 123.943,190.189 121.996,185.375 C124.817,182.762 126.559,179.8 126.912,176.647 L126.984,176.647 L126.984,168.146 C127.075,178.015 128.948,187.865 132.607,197.116 C131.515,197.886 130.32,198.615 129.035,199.299 M137.361,192.703 C130.656,174.064 131.628,153.112 140.241,135.157 L140.241,186.259 L140.169,186.259 C140.16,186.337 140.151,186.415 140.14,186.493 C140.137,186.519 140.133,186.545 140.129,186.571 C140.122,186.622 140.114,186.673 140.107,186.723 C140.101,186.758 140.096,186.792 140.09,186.827 C140.083,186.867 140.076,186.908 140.069,186.948 C140.062,186.989 140.055,187.029 140.047,187.069 C140.041,187.099 140.035,187.129 140.03,187.159 C140.019,187.21 140.009,187.262 139.998,187.313 C139.998,187.315 139.997,187.318 139.997,187.32 C139.594,189.204 138.689,191.011 137.361,192.703 M126.984,166.637 L126.984,132.079 L135.057,132.079 C129.785,142.891 127.093,154.753 126.984,166.637" fill="#BB5639"/>
      <path d="M132.607,197.116 C128.948,187.865 127.075,178.015 126.984,168.146 L126.984,166.637 C127.093,154.753 129.785,142.891 135.057,132.079 L140.241,132.079 L140.241,135.157 C131.628,153.112 130.656,174.064 137.361,192.703 L137.361,192.712 C137.135,193.003 136.896,193.289 136.645,193.572 C136.638,193.58 136.63,193.589 136.623,193.597 C136.556,193.672 136.488,193.747 136.42,193.821 C135.348,194.984 134.069,196.086 132.607,197.116" fill="#BF6C52"/>
      <path d="M123.517,201.744 C121.141,197.609 118.876,193.384 117.003,189.009 C118.911,187.898 120.588,186.68 121.996,185.375 C123.943,190.189 126.425,194.785 129.035,199.299 C127.347,200.196 125.499,201.015 123.517,201.744" fill="#BF6C52"/>
    </g>
    <path d="M140.24,132.076 C140.24,143.398 122.331,152.576 100.24,152.576 C78.148,152.576 60.24,143.398 60.24,132.076 C60.24,120.754 78.148,111.576 100.24,111.576 C122.331,111.576 140.24,120.754 140.24,132.076" fill="#DE6135"/>
    <path d="M100.24,149.576 C78.107,149.576 63.24,140.528 63.24,132.076 C63.24,123.625 78.107,114.576 100.24,114.576 C122.372,114.576 137.24,123.625 137.24,132.076 C137.24,140.528 122.372,149.576 100.24,149.576" fill="#FFFFFE"/>
    <path d="M126.98,132.076 C126.98,134.236 122.55,139.566 110.91,141.686 C107.86,142.246 104.32,142.576 100.24,142.576 C80.55,142.576 73.5,134.796 73.5,132.076 C73.5,129.356 80.55,121.576 100.24,121.576 C104.32,121.576 107.86,121.906 110.91,122.466 C122.55,124.586 126.98,129.916 126.98,132.076" fill="#FFFFFE"/>
    <path d="M122.48,132.076 C122.48,134.236 118.05,139.566 106.41,141.686 C94.77,139.566 90.34,134.236 90.34,132.076 C90.34,129.916 94.77,124.586 106.41,122.466 C118.05,124.586 122.48,129.916 122.48,132.076" fill="#E49B46"/>
    <path d="M126.98,132.076 C126.98,134.236 122.55,139.566 110.91,141.686 C99.27,139.566 94.84,134.236 94.84,132.076 C94.84,129.916 99.27,124.586 110.91,122.466 C122.55,124.586 126.98,129.916 126.98,132.076" fill="#EEB15E"/>
    <path d="M100.24,142.576 L100.24,141.576 C90.528,141.577 84.009,139.654 79.966,137.465 C77.944,136.372 76.54,135.209 75.667,134.205 C75.23,133.705 74.927,133.244 74.743,132.868 C74.557,132.492 74.5,132.199 74.503,132.076 C74.5,131.953 74.557,131.66 74.743,131.285 C75.064,130.623 75.754,129.715 76.877,128.763 C80.247,125.892 87.493,122.573 100.24,122.576 C109.951,122.576 116.47,124.498 120.514,126.687 C122.536,127.781 123.94,128.944 124.813,129.947 C125.249,130.447 125.553,130.908 125.736,131.285 C125.923,131.66 125.979,131.953 125.976,132.076 C125.979,132.199 125.923,132.492 125.736,132.868 C125.416,133.529 124.726,134.437 123.602,135.389 C120.232,138.26 112.986,141.579 100.24,141.576 L100.24,143.576 C110.213,143.576 117.062,141.606 121.466,139.224 C123.667,138.032 125.256,136.739 126.321,135.519 C126.853,134.908 127.254,134.315 127.533,133.746 C127.809,133.176 127.973,132.632 127.976,132.076 C127.973,131.521 127.809,130.976 127.533,130.406 C127.044,129.413 126.183,128.335 124.897,127.239 C121.039,123.965 113.33,120.579 100.24,120.576 C90.266,120.577 83.417,122.546 79.014,124.928 C76.812,126.12 75.223,127.413 74.159,128.633 C73.627,129.244 73.225,129.837 72.947,130.406 C72.67,130.976 72.507,131.521 72.503,132.076 C72.507,132.632 72.67,133.176 72.947,133.746 C73.435,134.74 74.296,135.818 75.582,136.913 C79.441,140.187 87.149,143.573 100.24,143.576 L100.24,142.576" fill="#1A1919"/>
    <g clip-path="url(#Clip_3)">
      <path d="M350.238,132.079 L350.238,186.259 L350.166,186.259 C349.923,188.527 348.942,190.696 347.358,192.703 L347.358,192.712 C346.134,194.296 344.532,195.763 342.606,197.122 C341.517,197.887 340.329,198.616 339.042,199.3 C337.359,200.2 335.514,201.019 333.516,201.748 C328.863,203.458 323.436,204.673 317.568,205.222 L317.559,205.222 C315.435,205.438 313.266,205.546 311.043,205.564 C310.782,205.573 310.512,205.573 310.242,205.573 C307.128,205.573 304.113,205.393 301.206,205.042 C298.74,204.754 296.364,204.349 294.087,203.836 L294.087,203.827 C291.801,203.314 289.632,202.693 287.598,201.964 C284.871,201.019 282.387,199.885 280.209,198.616 C274.476,195.286 270.84,190.975 270.309,186.259 L270.237,186.259 L270.237,132.079 L350.238,132.079" fill="#C96C43"/>
      <path d="M287.598,201.964 C284.871,201.019 282.387,199.885 280.209,198.616 C277.302,189.499 275.187,180.112 274.089,170.509 C272.64,157.747 273.162,144.652 275.862,132.079 L282.018,132.079 C279.174,144.589 278.598,157.675 280.092,170.509 C281.352,181.309 283.971,191.803 287.598,201.964" fill="#D08C71"/>
      <path d="M304.392,134.716 C291.639,156.019 290.541,182.812 301.206,205.042 C298.74,204.754 296.364,204.349 294.087,203.836 L294.087,203.827 C284.52,180.778 286.158,153.778 298.983,132.079 C299.064,131.944 299.127,131.818 299.208,131.683 C300.63,129.325 303.672,130.189 304.572,132.079 C304.941,132.835 304.959,133.762 304.392,134.716" fill="#D08C71"/>
      <path d="M350.238,135.157 C341.634,153.112 340.662,174.064 347.358,192.703 L347.358,192.712 C346.134,194.296 344.532,195.763 342.606,197.122 C334.362,176.26 335.181,152.329 345.063,132.079 L350.238,132.079 L350.238,135.157" fill="#D08C71"/>
      <path d="M322.401,140.584 C308.919,159.439 307.164,184.756 317.559,205.222 C315.435,205.438 313.266,205.546 311.043,205.564 C301.044,183.829 303.159,157.225 317.217,137.56 C319.449,134.437 324.651,137.434 322.401,140.584" fill="#D08C71"/>
      <path d="M339.042,199.3 C337.359,200.2 335.514,201.019 333.516,201.748 C329.178,194.197 325.209,186.349 323.319,177.826 C320.799,166.468 322.734,155.047 325.146,143.86 C325.974,140.08 331.752,141.682 330.942,145.453 C328.62,156.163 326.721,167.098 329.511,177.925 C331.482,185.539 335.109,192.514 339.042,199.3" fill="#D08C71"/>
      <path d="M310.242,205.573 C310.074,205.573 309.906,205.572 309.738,205.571 C309.678,205.571 309.619,205.57 309.559,205.57 C309.442,205.569 309.326,205.567 309.209,205.566 C309.147,205.565 309.085,205.564 309.023,205.564 C308.871,205.561 308.72,205.558 308.569,205.555 C308.486,205.554 308.401,205.551 308.318,205.549 C308.246,205.548 308.175,205.546 308.103,205.544 C308.004,205.541 307.904,205.538 307.806,205.535 C307.752,205.534 307.698,205.532 307.644,205.53 C307.463,205.524 307.283,205.518 307.103,205.51 C307.042,205.508 306.982,205.506 306.921,205.503 C306.823,205.499 306.725,205.495 306.627,205.49 C306.561,205.487 306.495,205.484 306.429,205.481 C306.303,205.475 306.178,205.468 306.053,205.462 C305.943,205.456 305.834,205.45 305.725,205.443 C305.661,205.44 305.598,205.436 305.534,205.432 C305.394,205.424 305.254,205.415 305.115,205.406 C305.099,205.405 305.085,205.404 305.069,205.403 C303.761,205.315 302.474,205.195 301.206,205.042 C299.79,202.09 298.581,199.057 297.579,195.967 C300.936,195.942 304.193,195.704 307.302,195.279 C308.265,198.794 309.512,202.236 311.043,205.564 C310.917,205.568 310.79,205.57 310.661,205.572 C310.521,205.572 310.383,205.573 310.242,205.573" fill="#BB5639"/>
      <path d="M294.087,203.827 C293.393,203.671 292.71,203.505 292.038,203.33 C292.004,203.321 291.969,203.312 291.935,203.303 C291.896,203.292 291.856,203.282 291.817,203.271 C291.161,203.096 290.516,202.913 289.883,202.72 C289.104,202.483 288.342,202.231 287.598,201.964 C286.785,199.686 286.023,197.392 285.315,195.081 C287.233,195.381 289.211,195.609 291.239,195.759 C292.041,198.491 292.99,201.185 294.087,203.827 M280.206,198.607 C277.051,196.769 274.526,194.639 272.806,192.307 C272.636,192.075 272.473,191.842 272.319,191.606 C274.314,192.406 276.46,193.111 278.73,193.71 C279.196,195.35 279.688,196.983 280.206,198.607" fill="#BB5639"/>
      <path d="M287.598,201.964 C287.117,201.797 286.645,201.625 286.18,201.447 C284.005,200.605 282.004,199.654 280.206,198.607 C279.688,196.983 279.196,195.35 278.73,193.71 C280.825,194.262 283.027,194.723 285.315,195.081 C286.023,197.392 286.785,199.686 287.598,201.964" fill="#BF6C52"/>
      <path d="M301.206,205.042 C300.012,204.903 298.84,204.736 297.69,204.542 C296.461,204.334 295.259,204.096 294.087,203.831 L294.087,203.827 C292.99,201.185 292.041,198.491 291.239,195.759 C293.112,195.898 295.028,195.97 296.976,195.97 C297.178,195.97 297.378,195.969 297.579,195.967 C298.581,199.057 299.79,202.09 301.206,205.042" fill="#BF6C52"/>
      <path d="M317.568,205.222 L317.559,205.222 C315.757,201.674 314.321,197.981 313.247,194.201 C318.537,192.992 323.222,191.21 327.001,189.011 C328.874,193.386 331.139,197.611 333.515,201.746 C331.434,202.51 329.203,203.175 326.851,203.727 C326.741,203.752 326.631,203.778 326.521,203.803 C326.498,203.808 326.474,203.814 326.451,203.819 C323.646,204.456 320.669,204.932 317.568,205.222" fill="#BB5639"/>
      <path d="M311.043,205.564 C309.512,202.236 308.265,198.794 307.302,195.279 C309.353,194.999 311.339,194.637 313.247,194.201 C314.321,197.981 315.757,201.674 317.559,205.222 C316.848,205.294 316.133,205.354 315.412,205.403 C314.869,205.439 314.322,205.469 313.772,205.494 C313.712,205.497 313.652,205.499 313.592,205.502 C313.551,205.504 313.512,205.505 313.471,205.507 C312.669,205.538 311.859,205.557 311.043,205.564" fill="#BF6C52"/>
      <path d="M339.04,199.297 C336.425,194.784 333.945,190.187 331.997,185.375 C334.818,182.762 336.559,179.8 336.909,176.647 L336.981,176.647 L336.981,132.079 L345.063,132.079 C335.182,152.328 334.362,176.257 342.604,197.118 C341.514,197.886 340.323,198.614 339.04,199.297 M347.358,192.703 C340.662,174.064 341.634,153.112 350.238,135.157 L350.238,186.259 L350.166,186.259 C350.008,187.677 349.569,189.057 348.876,190.384 C348.459,191.178 347.951,191.952 347.358,192.703" fill="#BB5639"/>
      <path d="M342.604,197.118 C334.362,176.257 335.182,152.328 345.063,132.079 L350.238,132.079 L350.238,135.157 C341.634,153.112 340.662,174.064 347.358,192.703 L347.358,192.712 C347.22,192.89 347.077,193.066 346.93,193.242 C345.762,194.619 344.308,195.917 342.604,197.118" fill="#BF6C52"/>
      <path d="M333.515,201.746 C331.139,197.611 328.874,193.386 327.001,189.011 C328.91,187.899 330.588,186.681 331.997,185.375 C333.945,190.187 336.425,194.784 339.04,199.297 C337.35,200.196 335.5,201.016 333.515,201.746" fill="#BF6C52"/>
    </g>
    <path d="M350.24,132.076 C350.24,143.398 332.331,152.576 310.24,152.576 C288.148,152.576 270.24,143.398 270.24,132.076 C270.24,120.754 288.148,111.576 310.24,111.576 C332.331,111.576 350.24,120.754 350.24,132.076" fill="#DE6135"/>
    <path d="M310.24,149.576 C288.107,149.576 273.24,140.528 273.24,132.076 C273.24,123.625 288.107,114.576 310.24,114.576 C332.372,114.576 347.24,123.625 347.24,132.076 C347.24,140.528 332.372,149.576 310.24,149.576" fill="#FFFFFE"/>
    <path d="M336.979,132.076 C336.979,134.236 332.55,139.566 320.91,141.686 C317.86,142.246 314.32,142.576 310.24,142.576 C290.55,142.576 283.5,134.796 283.5,132.076 C283.5,129.356 290.55,121.576 310.24,121.576 C314.32,121.576 317.86,121.906 320.91,122.466 C332.55,124.586 336.979,129.916 336.979,132.076" fill="#FFFFFE"/>
    <path d="M332.479,132.076 C332.479,134.236 328.05,139.566 316.41,141.686 C304.77,139.566 300.34,134.236 300.34,132.076 C300.34,129.916 304.77,124.586 316.41,122.466 C328.05,124.586 332.479,129.916 332.479,132.076" fill="#B04749"/>
    <path d="M336.979,132.076 C336.979,134.236 332.55,139.566 320.91,141.686 C309.27,139.566 304.84,134.236 304.84,132.076 C304.84,129.916 309.27,124.586 320.91,122.466 C332.55,124.586 336.979,129.916 336.979,132.076" fill="#D03F44"/>
    <path d="M310.24,142.576 L310.24,141.576 C300.529,141.577 294.009,139.654 289.966,137.465 C287.944,136.372 286.54,135.209 285.667,134.205 C285.23,133.705 284.927,133.244 284.744,132.868 C284.557,132.492 284.501,132.199 284.504,132.076 C284.501,131.953 284.557,131.66 284.744,131.285 C285.064,130.623 285.754,129.715 286.878,128.763 C290.247,125.892 297.494,122.573 310.24,122.576 C319.951,122.576 326.47,124.498 330.514,126.687 C332.536,127.781 333.94,128.944 334.813,129.947 C335.25,130.447 335.553,130.908 335.737,131.285 C335.923,131.66 335.98,131.953 335.977,132.076 C335.98,132.199 335.923,132.492 335.737,132.868 C335.416,133.529 334.726,134.437 333.602,135.389 C330.233,138.26 322.986,141.579 310.24,141.576 L310.24,143.576 C320.214,143.576 327.063,141.606 331.466,139.224 C333.668,138.032 335.257,136.74 336.321,135.519 C336.853,134.908 337.255,134.315 337.533,133.746 C337.81,133.176 337.973,132.632 337.977,132.076 C337.973,131.521 337.81,130.976 337.533,130.406 C337.045,129.413 336.184,128.335 334.898,127.239 C331.039,123.965 323.33,120.579 310.24,120.576 C300.266,120.577 293.417,122.546 289.014,124.928 C286.813,126.12 285.223,127.413 284.159,128.633 C283.627,129.244 283.226,129.837 282.947,130.406 C282.671,130.976 282.507,131.521 282.504,132.076 C282.507,132.632 282.671,133.176 282.947,133.746 C283.436,134.74 284.297,135.818 285.582,136.913 C289.441,140.187 297.15,143.573 310.24,143.576 L310.24,142.576" fill="#1A1919"/>
    <path d="M100.24,2.227 L310.24,2.227 L310.24,90.723 L100.24,90.723 z" fill="#D03F44"/>
    <path d="M153.55,68.728 L152.369,74.299 L152.369,76.324 L153.043,77.421 L152.706,80.291 L146.376,79.953 L145.532,80.122 L121.142,80.122 L120.551,78.349 L119.96,73.032 L119.96,54.972 L120.298,54.466 L123.842,54.297 L129.328,54.297 L129.328,58.264 L129.919,59.107 L129.413,59.529 L129.413,67.209 L129.16,67.885 L129.582,71.514 L144.351,71.514 L143.422,56.491 L119.707,45.182 L119.707,18.766 L133.042,18.766 L133.464,18.428 L134.898,18.597 L135.236,18.934 L137.937,18.428 L138.359,18.934 L140.975,18.26 L142.325,18.344 L142.579,18.766 L148.993,18.26 L149.415,18.766 L151.355,19.356 L151.693,23.07 L151.187,23.323 L152.2,24.758 L152.2,27.121 L151.862,27.712 L152.453,28.808 L152.453,43.325 L143.929,42.565 L143.169,39.865 L143.169,28.556 L141.65,28.387 L137.684,28.64 L128.4,28.64 L128.4,31.932 L128.906,32.775 L128.569,33.704 L128.569,35.729 L128.906,36.067 L128.653,36.826 L128.653,38.599 L129.75,39.442 L149.246,49.57 L149.246,50.245 L153.043,51.933 L153.043,52.524 L152.622,52.777 L153.128,64.846 L152.622,67.294 L153.212,67.631 L153.297,68.559 L153.55,68.728" fill="#FFFFFE"/>
    <path d="M190.768,49.401 L190.261,49.823 L190.261,59.782 L190.515,64.678 L190.093,70.416 L190.515,70.754 L189.839,71.092 L190.515,81.388 L189.333,80.459 L174.057,80.459 L173.804,80.206 L161.145,80.206 L158.866,80.628 L158.866,30.75 L159.372,30.159 L158.612,18.006 L168.571,18.766 L168.571,48.136 L167.812,48.81 L168.993,49.57 L168.571,50.752 L168.571,71.682 L181.568,71.682 L181.315,65.858 L181.315,18.513 L186.801,18.513 L189.417,18.766 L189.417,45.098 L190.515,46.87 L189.839,47.461 L190.768,49.401" fill="#FFFFFE"/>
    <path d="M230.432,68.728 L229.25,74.299 L229.25,76.324 L229.926,77.421 L229.588,80.291 L223.258,79.953 L222.414,80.122 L198.023,80.122 L197.433,78.349 L196.842,73.032 L196.842,54.972 L197.18,54.466 L200.725,54.297 L206.21,54.297 L206.21,58.264 L206.801,59.107 L206.295,59.529 L206.295,67.209 L206.041,67.885 L206.463,71.514 L221.232,71.514 L220.305,56.491 L196.589,45.182 L196.589,18.766 L209.924,18.766 L210.346,18.428 L211.78,18.597 L212.118,18.934 L214.818,18.428 L215.24,18.934 L217.856,18.26 L219.207,18.344 L219.46,18.766 L225.874,18.26 L226.297,18.766 L228.237,19.356 L228.575,23.07 L228.068,23.323 L229.081,24.758 L229.081,27.121 L228.744,27.712 L229.335,28.808 L229.335,43.325 L220.811,42.565 L220.051,39.865 L220.051,28.556 L218.532,28.387 L214.565,28.64 L205.281,28.64 L205.281,31.932 L205.788,32.775 L205.45,33.704 L205.45,35.729 L205.788,36.067 L205.535,36.826 L205.535,38.599 L206.632,39.442 L226.128,49.57 L226.128,50.245 L229.926,51.933 L229.926,52.524 L229.504,52.777 L230.01,64.846 L229.504,67.294 L230.095,67.631 L230.179,68.559 L230.432,68.728" fill="#FFFFFE"/>
    <path d="M259.294,80.544 L260.222,79.278 L260.644,77.421 L258.956,53.115 L248.828,53.115 L247.815,53.875 L248.913,81.135 L247.394,80.544 L238.363,80.544 L236,38.346 L236,16.487 L246.55,16.487 L248.153,41.974 L259.8,41.974 L260.56,40.878 L260.56,38.767 L259.631,33.197 L259.631,19.356 L259.294,16.149 L262.754,16.318 L269.59,15.727 L270.097,16.909 L269.928,19.018 L270.855,28.724 L271.868,50.752 L271.868,67.547 L271.446,77.843 L272.037,79.193 L272.206,80.544 L259.294,80.544" fill="#FFFFFE"/>
    <path d="M290.772,65.015 L290.097,67.463 L290.097,77.759 L289.591,77.675 L289.591,80.797 L289.928,81.05 L279.21,81.05 L278.112,76.999 L278.619,75.817 L278.619,70.332 L278.112,55.646 L278.45,54.972 L278.45,47.292 L277.859,46.447 L278.366,45.603 L278.112,42.059 L278.366,36.489 L278.619,36.151 L278.112,35.813 L278.281,34.041 L278.788,33.113 L278.112,32.269 L278.619,30.666 L278.619,21.298 L279.21,18.175 L286.215,18.175 L288.915,17.922 L290.097,28.049 L290.097,55.562 L290.35,61.555 L290.182,64.678 L290.772,65.015" fill="#FFFFFE"/>
    <path d="M371.1,359.372 L34.528,273.071 C33.384,272.777 32.69,271.616 32.975,270.47 C33.259,269.324 34.415,268.62 35.563,268.896 L373.464,349.836 C376.117,350.472 377.744,353.148 377.088,355.796 C376.432,358.445 373.742,360.05 371.1,359.372" fill="#E49B46"/>
    <path d="M377.087,355.791 C376.433,358.433 373.769,360.029 371.138,359.376 L371.096,359.367 L144.132,301.178 L372.121,355.409 C374.05,355.876 375.992,355.118 377.128,353.645 C377.271,354.328 377.268,355.065 377.087,355.791" fill="#CA8B3F"/>
    <path d="M373.797,268.3 L33.366,355.591 C32.865,355.72 32.562,356.228 32.686,356.73 L33.263,359.059 C33.388,359.561 33.894,359.868 34.396,359.747 L376.172,277.879 C377.333,277.601 378.046,276.43 377.758,275.27 L376.418,269.866 C376.131,268.706 374.953,268.003 373.797,268.3" fill="#E49B46"/>
    <path d="M377.087,272.573 C376.433,269.931 373.769,268.335 371.138,268.988 L371.096,268.998 L144.132,327.186 L372.121,272.955 C374.05,272.488 375.992,273.246 377.128,274.719 C377.271,274.036 377.268,273.299 377.087,272.573" fill="#CA8B3F"/>
  </g>
</svg>
